<svg width="48" height="48" viewBox="0 0 48 48" fill="none" xmlns="http://www.w3.org/2000/svg">
<circle cx="24" cy="24" r="24" fill="#57595C"/>
<mask id="mask0" mask-type="alpha" maskUnits="userSpaceOnUse" x="0" y="0" width="48" height="48">
<circle cx="24" cy="24" r="24" fill="white"/>
</mask>
<g mask="url(#mask0)">
<path fill-rule="evenodd" clip-rule="evenodd" d="M28.504 37.256C28.371 35.752 28.421 34.703 28.421 33.328C29.091 32.972 30.289 30.692 30.491 28.766C31.017 28.722 31.846 28.2 32.089 26.136C32.22 25.029 31.7 24.406 31.383 24.21C32.238 21.588 34.016 13.479 28.094 12.641C27.486 11.551 25.926 11 23.899 11C15.786 11.152 14.807 17.239 16.585 24.21C16.27 24.406 15.749 25.029 15.879 26.136C16.123 28.2 16.951 28.722 17.477 28.766C17.679 30.691 18.925 32.972 19.596 33.328C19.596 34.703 19.646 35.752 19.512 37.256C18.357 40.42 12.424 40.668 9 43.719C12.579 47.387 18.379 50.013 24.499 50.013C30.62 50.013 37.814 45.091 39.011 43.749C35.609 40.67 29.663 40.43 28.504 37.256Z" fill="#F9F9F9"/>
</g>
</svg>
